<?xml version="1.0" encoding="UTF-8"?> <svg xmlns="http://www.w3.org/2000/svg" width="115" height="124" viewBox="0 0 115 124" fill="none"><path d="M98.8496 0L68.3875 13.1943L76.11 24.5411L98.8496 0Z" fill="#B4975A"></path><path d="M67.9976 13.7934L57.4365 73.2175L75.7201 25.1339L67.9976 13.7934Z" fill="#B4975A"></path><path d="M76.4943 25.096L76.532 25.1584L76.3432 25.277L58.2107 73.0486L98.9003 0.916912L76.4943 25.096Z" fill="#B4975A"></path><path d="M54.6545 50.4553L55.7371 72.6185L60.5519 45.5496L54.6545 50.4553Z" fill="#B4975A"></path><path d="M60.4069 44.8068L18.062 1.49782L54.3711 49.8373L60.4069 44.8068Z" fill="#B4975A"></path><path d="M17.2439 1.51613L55.1139 73.3919L53.9873 50.4236L17.2439 1.51613Z" fill="#B4975A"></path><path d="M15.7773 85.0576C15.9535 85.077 16.1494 85.0964 16.3453 85.1158C16.5019 85.1352 16.6978 85.1449 16.9034 85.1449C17.1091 85.1449 17.3049 85.1449 17.491 85.1449C17.3539 85.5231 17.1678 85.9692 16.9426 86.4832C16.7663 86.9196 16.5509 87.4531 16.2963 88.0834C16.0417 88.7041 15.7577 89.4315 15.4345 90.2462L12.5457 97.7042C12.1834 98.6158 11.8798 99.4111 11.6252 100.071C11.3804 100.74 11.1649 101.302 11.0082 101.758C10.8124 102.272 10.6557 102.709 10.5578 103.067H8.06063C7.9627 102.709 7.80601 102.272 7.61016 101.758C7.45347 101.302 7.23803 100.74 6.98342 100.071C6.71902 99.4014 6.41545 98.6158 6.0825 97.7042L3.19365 90.2462C2.87049 89.4315 2.5865 88.7138 2.34168 88.0834C2.08707 87.4531 1.87164 86.9196 1.69537 86.4832C1.47014 85.9692 1.29386 85.5231 1.14697 85.1449C1.62682 85.1449 2.08707 85.1448 2.51795 85.1255C2.94883 85.1158 3.34054 85.0964 3.68329 85.077C4.0652 85.0576 4.42753 85.0382 4.77028 85.0188C4.88779 85.4164 5.05426 85.8722 5.25012 86.3862C5.4068 86.8421 5.61245 87.3949 5.84747 88.0253C6.09229 88.6653 6.36649 89.4024 6.68965 90.2365L9.57849 97.6945C9.67642 97.9757 9.79393 98.2764 9.92124 98.6061C10.0485 98.9359 10.1661 99.2365 10.264 99.5178C10.3619 99.2365 10.4794 98.9553 10.5969 98.6546C10.7144 98.354 10.8515 98.0436 10.9886 97.7042L13.8775 90.2462C14.2006 89.4121 14.4748 88.675 14.7099 88.0543C14.9449 87.424 15.1408 86.8809 15.2974 86.425C15.4737 85.911 15.6304 85.4552 15.7773 85.0576Z" fill="#B4975A"></path><path d="M22.975 100.032C22.975 100.691 22.9848 101.244 23.0044 101.7C23.0239 102.214 23.0435 102.66 23.0631 103.038C22.9064 103.038 22.6714 103.038 22.3678 103.038C22.0643 103.038 21.7509 103.038 21.4179 103.048C21.085 103.058 20.7618 103.068 20.4583 103.068C20.1449 103.068 19.9099 103.068 19.7532 103.068C19.7532 102.709 19.763 102.272 19.7826 101.758C19.8021 101.302 19.8119 100.74 19.8217 100.071C19.8315 99.4016 19.8413 98.616 19.8413 97.7044V90.2464C19.8413 89.4317 19.8315 88.714 19.8217 88.0836C19.8119 87.4533 19.8021 86.9199 19.7826 86.4834C19.763 85.9694 19.7532 85.5233 19.7532 85.1451C19.9882 85.1451 20.3016 85.145 20.6737 85.1257C21.0458 85.116 21.4081 85.0966 21.7705 85.0772C22.172 85.0578 22.6029 85.0287 23.0631 84.9899C23.0435 85.4069 23.0239 85.8724 23.0044 86.3961C22.9848 86.852 22.975 87.4048 22.975 88.0352C22.975 88.6752 22.975 89.4123 22.975 90.2464V97.7044C22.975 98.5966 22.975 99.3725 22.975 100.032Z" fill="#B4975A"></path><path d="M27.2834 85.1742C28.0864 85.1354 28.9482 85.0966 29.8589 85.0675C30.7697 85.0384 31.7685 85.019 32.8555 85.019C33.7173 85.019 34.5301 85.0869 35.2841 85.213C36.0381 85.3391 36.6845 85.5718 37.2426 85.9016C37.8008 86.2313 38.2317 86.6677 38.5549 87.2302C38.878 87.783 39.0347 88.491 39.0347 89.3445C39.0347 90.3434 38.7115 91.1193 38.075 91.6721C37.4287 92.2249 36.6159 92.6225 35.6366 92.8359V93.0395C36.9587 93.3208 37.9869 93.8833 38.7213 94.7368C39.4558 95.5902 39.8181 96.6182 39.8181 97.8111C39.8181 98.8004 39.6516 99.6247 39.3089 100.284C38.9662 100.934 38.4961 101.458 37.8889 101.846C37.2916 102.234 36.5767 102.515 35.7639 102.699C34.9511 102.883 34.0698 102.99 33.1297 103.029H30.6032C30.4465 103.029 30.2115 103.029 29.9079 103.029C29.6043 103.029 29.291 103.029 28.958 103.039C28.6251 103.048 28.3019 103.058 27.9983 103.058C27.685 103.058 27.4499 103.058 27.2932 103.058C27.2932 102.699 27.303 102.263 27.3226 101.749C27.3422 101.293 27.3618 100.73 27.3716 100.061C27.3814 99.392 27.3814 98.6064 27.3814 97.6947V90.2367C27.3814 89.4221 27.3814 88.7044 27.3716 88.074C27.3618 87.4436 27.3422 86.9102 27.3226 86.4738C27.2932 85.9695 27.2834 85.533 27.2834 85.1742ZM32.6694 101.904C33.9719 101.904 34.9218 101.545 35.4995 100.827C36.0773 100.11 36.3711 99.1107 36.3711 97.8111C36.3711 96.3952 36.0773 95.3962 35.48 94.8143C34.8924 94.2324 34.011 93.9318 32.8457 93.9318C32.7086 93.9318 32.5421 93.9318 32.3659 93.9415C32.1896 93.9512 32.0427 93.9706 31.9448 93.99L32.1504 92.6807C32.5519 92.6225 32.973 92.5255 33.4039 92.3995C33.8348 92.2734 34.2265 92.0891 34.579 91.8467C34.9316 91.6042 35.2155 91.3035 35.4408 90.935C35.666 90.5665 35.7737 90.101 35.7737 89.5482C35.7737 88.3747 35.4701 87.4921 34.8728 86.9102C34.2754 86.3186 33.257 86.0277 31.8371 86.0277C31.6118 86.0277 31.4062 86.0374 31.2005 86.0568C30.9949 86.0762 30.7892 86.1052 30.5738 86.144C30.5542 86.5417 30.5346 87.0848 30.5248 87.7734C30.5151 88.4619 30.515 89.2766 30.515 90.2367V97.6947V100.352C30.515 100.866 30.5248 101.39 30.5444 101.904H32.6694Z" fill="#B4975A"></path><path d="M42.3647 94.3303C42.3647 91.3723 43.2069 89.0544 44.9011 87.396C46.5854 85.7376 49.014 84.9035 52.1868 84.9035C53.3326 84.9035 54.5175 85.0102 55.7416 85.2139C56.9657 85.4273 58.0331 85.6794 58.934 85.9801L58.5717 89.0544H57.7883C57.3672 88.0943 56.6817 87.3766 55.722 86.8917C54.7721 86.4068 53.6263 86.1643 52.3043 86.1643C51.1586 86.1643 50.1793 86.3874 49.3665 86.8238C48.5537 87.2602 47.878 87.8518 47.3492 88.5889C46.8204 89.326 46.4287 90.1697 46.1741 91.1396C45.9195 92.1094 45.802 93.1083 45.802 94.1363C45.802 95.2517 45.9293 96.2991 46.1741 97.2883C46.4287 98.2678 46.8204 99.131 47.3492 99.8874C47.878 100.634 48.5537 101.216 49.3665 101.643C50.1793 102.07 51.1488 102.283 52.275 102.283C52.8527 102.283 53.4893 102.205 54.1747 102.04C54.8602 101.885 55.4478 101.633 55.9472 101.294C55.9472 101.158 55.957 100.993 55.9766 100.818C55.9766 100.654 55.9864 100.498 55.9962 100.324C56.006 100.159 56.006 99.9747 56.006 99.7711C56.006 99.2377 56.006 98.6752 55.9962 98.0836C55.9864 97.492 55.9766 96.9489 55.9766 96.4252C55.957 95.8239 55.9472 95.242 55.9472 94.6601C56.3683 94.6601 56.7796 94.6601 57.1713 94.6504C57.563 94.6407 57.896 94.6213 58.18 94.6019C58.5227 94.5825 58.8361 94.5631 59.1103 94.5437C59.0907 95.0383 59.0809 95.562 59.0809 96.0954C59.0613 96.5512 59.0515 97.0846 59.0515 97.6859C59.0515 98.2969 59.0515 98.9176 59.0515 99.548C59.0515 99.8681 59.0515 100.169 59.0515 100.44C59.0515 100.722 59.0613 100.964 59.0809 101.187C59.0809 101.449 59.0907 101.682 59.1103 101.905C57.8862 102.361 56.6327 102.719 55.3499 102.962C54.067 103.214 52.7548 103.33 51.4328 103.33C49.9639 103.33 48.6712 103.127 47.5451 102.719C46.4189 102.312 45.469 101.72 44.6954 100.945C43.9218 100.169 43.344 99.228 42.9523 98.1127C42.5704 97.007 42.3647 95.7463 42.3647 94.3303Z" fill="#B4975A"></path><path d="M62.655 85.1257C63.1055 85.116 63.507 85.0966 63.8399 85.0772C64.2414 85.0578 64.6136 85.0287 64.9563 84.9899C65.2795 85.5039 65.6124 86.0373 65.9649 86.5707C66.3175 87.1041 66.5721 87.5114 66.7288 87.7636L70.6459 93.7863H70.7634L74.2594 87.8509C74.3965 87.6375 74.563 87.3563 74.7588 87.0362C74.9547 86.7065 75.1211 86.3961 75.2876 86.0955C75.4933 85.7366 75.6891 85.3875 75.885 85.0481C76.1102 85.0675 76.3354 85.0869 76.5803 85.1063C76.8055 85.1257 77.0307 85.1354 77.2755 85.1354C77.5203 85.1354 77.775 85.1354 78.0589 85.1354C77.677 85.6882 77.3049 86.2313 76.9426 86.7453C76.639 87.1817 76.3354 87.6375 76.0221 88.103C75.7087 88.5686 75.4639 88.9468 75.2876 89.2183L72.0364 94.3779C71.8504 94.6591 71.7035 94.9404 71.586 95.2119C71.4685 95.4932 71.3999 95.7259 71.3999 95.9296V97.6947C71.3999 98.5869 71.3999 99.3628 71.3999 100.022C71.3999 100.682 71.4097 101.235 71.4293 101.69C71.4489 102.204 71.4684 102.651 71.488 103.029C71.3314 103.029 71.0963 103.029 70.7928 103.029C70.4892 103.029 70.1758 103.029 69.8429 103.038C69.5099 103.048 69.1966 103.058 68.8832 103.058C68.5698 103.058 68.3348 103.058 68.1781 103.058C68.1781 102.699 68.1879 102.263 68.2075 101.749C68.2271 101.293 68.2467 100.73 68.2565 100.061C68.2662 99.3919 68.2662 98.6063 68.2662 97.6947V96.4145C68.2662 96.1914 68.2369 95.9684 68.1781 95.7259C68.1194 95.4835 68.0214 95.2701 67.8745 95.0761L61.2449 85.1451C61.7345 85.1451 62.2046 85.1354 62.655 85.1257Z" fill="#B4975A"></path><path d="M87.5188 103.31C84.346 103.31 81.9468 102.534 80.3212 100.972C78.6956 99.4111 77.8828 97.1707 77.8828 94.2419C77.8828 91.2354 78.7054 88.9272 80.3506 87.3075C81.9957 85.6879 84.4243 84.8733 87.6363 84.8733C90.8092 84.8733 93.1986 85.6491 94.8046 87.2009C96.4106 88.7526 97.2136 91.0026 97.2136 93.9412C97.2136 96.9477 96.4008 99.2559 94.7752 100.876C93.1496 102.495 90.7308 103.31 87.5188 103.31ZM87.274 85.9207C86.2066 85.9207 85.3057 86.1244 84.5418 86.5123C83.7878 86.9099 83.1807 87.4627 82.7106 88.1513C82.2406 88.8496 81.888 89.6739 81.6726 90.6244C81.4474 91.5845 81.3396 92.6125 81.3396 93.7278C81.3396 94.9401 81.4669 96.0651 81.7216 97.1125C81.9664 98.16 82.3581 99.0619 82.8967 99.8281C83.4255 100.594 84.1012 101.196 84.9336 101.632C85.7561 102.068 86.7354 102.282 87.8812 102.282C88.929 102.282 89.8201 102.078 90.5644 101.671C91.3086 101.263 91.9158 100.701 92.3858 99.9833C92.8559 99.2656 93.1986 98.4412 93.4238 97.4908C93.6491 96.55 93.7568 95.5414 93.7568 94.4649C93.7568 93.2138 93.6393 92.0597 93.3945 91.022C93.1496 89.9746 92.7677 89.0823 92.2389 88.3259C91.7101 87.5694 91.0344 86.9778 90.2216 86.5511C89.399 86.134 88.4198 85.9207 87.274 85.9207Z" fill="#B4975A"></path><path d="M100.376 103.067C100.376 102.708 100.386 102.272 100.406 101.758C100.425 101.302 100.435 100.74 100.445 100.07C100.455 99.4013 100.464 98.6157 100.464 97.704V90.246C100.464 89.4314 100.455 88.7137 100.445 88.0833C100.435 87.4529 100.425 86.9292 100.406 86.5122C100.386 86.0176 100.376 85.5908 100.376 85.232C100.758 85.2126 101.179 85.1932 101.62 85.1544C102.07 85.1253 102.531 85.0962 102.971 85.0768C103.422 85.0574 103.853 85.038 104.264 85.0283C104.675 85.0186 105.038 85.0089 105.361 85.0089C106.487 85.0089 107.505 85.0768 108.436 85.2126C109.356 85.3484 110.149 85.6102 110.815 85.9788C111.471 86.3473 111.99 86.8419 112.353 87.4723C112.715 88.1027 112.891 88.8883 112.891 89.8484C112.891 91.3613 112.441 92.5251 111.54 93.3398C110.639 94.1545 109.444 94.7073 107.956 94.9788C108.142 95.1825 108.318 95.3668 108.494 95.5607C108.671 95.7547 108.867 95.9486 109.062 96.1717L114.997 103.028H111.05L106.046 97.2385L104.724 95.8323L104.94 94.5812C105.606 94.5812 106.213 94.4939 106.761 94.3096C107.319 94.1254 107.789 93.8538 108.191 93.4853C108.592 93.1167 108.906 92.6415 109.121 92.0693C109.346 91.4971 109.454 90.8182 109.454 90.0424C109.454 89.1598 109.346 88.4615 109.121 87.9378C108.896 87.4141 108.583 87.0068 108.161 86.7158C107.74 86.4249 107.212 86.2406 106.595 86.1436C105.968 86.0564 105.263 86.0079 104.46 86.0079C104.303 86.0079 104.166 86.0079 104.068 86.0176C103.97 86.0273 103.823 86.0467 103.647 86.066C103.627 86.4637 103.618 87.0068 103.608 87.6857C103.598 88.3742 103.588 89.2083 103.588 90.2072V97.6653C103.588 98.5575 103.588 99.3334 103.588 99.9928C103.588 100.652 103.598 101.205 103.618 101.661C103.637 102.175 103.657 102.621 103.676 102.999C103.598 102.999 103.412 102.999 103.118 102.999C102.824 102.999 102.511 102.999 102.168 103.009C101.826 103.019 101.483 103.028 101.15 103.028C100.817 103.067 100.562 103.067 100.376 103.067Z" fill="#B4975A"></path><path d="M22.7302 117.181H24.0522C24.7867 117.181 25.2861 117.21 25.5505 117.268C25.9422 117.355 26.2654 117.549 26.5102 117.84C26.755 118.131 26.8823 118.49 26.8823 118.926C26.8823 119.285 26.7942 119.605 26.6277 119.867C26.4613 120.139 26.2164 120.342 25.9031 120.478C25.5897 120.614 25.149 120.691 24.5908 120.691L26.9803 123.737H26.1577L23.7682 120.691H23.3961V123.737H22.74V117.181H22.7302ZM23.3961 117.83V120.061L24.5419 120.071C24.9825 120.071 25.3057 120.032 25.5211 119.945C25.7366 119.857 25.9031 119.731 26.0206 119.547C26.1381 119.363 26.2066 119.159 26.2066 118.936C26.2066 118.713 26.1479 118.509 26.0206 118.335C25.9031 118.16 25.7464 118.024 25.5407 117.947C25.3449 117.869 25.0217 117.83 24.5713 117.83H23.3961Z" fill="#B4975A"></path><path d="M30.1531 117.181H33.9527V117.821H30.819V119.877H33.9331V120.517H30.819V123.097H33.9331V123.737H30.1629V117.181H30.1531Z" fill="#B4975A"></path><path d="M39.6517 117.181L42.7462 123.746H42.0313L40.9835 121.584H38.124L37.086 123.746H36.3516L39.4852 117.181H39.6517ZM39.5734 118.577L38.4374 120.953H40.7093L39.5734 118.577Z" fill="#B4975A"></path><path d="M45.6252 117.181H46.2814V123.116H48.8372V123.746H45.6252V117.181Z" fill="#B4975A"></path><path d="M56.1426 117.181H59.9422V117.821H56.8085V119.877H59.9226V120.517H56.8085V123.097H59.9226V123.737H56.1524V117.181H56.1426Z" fill="#B4975A"></path><path d="M62.2532 122.533L62.8212 122.194C63.2129 122.921 63.6731 123.28 64.1921 123.28C64.4174 123.28 64.623 123.231 64.8189 123.125C65.0147 123.018 65.1616 122.882 65.2693 122.717C65.377 122.543 65.426 122.358 65.426 122.164C65.426 121.941 65.3477 121.728 65.2008 121.515C64.9951 121.224 64.6132 120.875 64.0648 120.458C63.5066 120.041 63.1737 119.74 63.0268 119.556C62.7918 119.245 62.6743 118.916 62.6743 118.547C62.6743 118.266 62.7428 118.004 62.8799 117.771C63.017 117.538 63.2129 117.354 63.4675 117.218C63.7221 117.083 63.9865 117.015 64.2901 117.015C64.6034 117.015 64.8972 117.092 65.1714 117.247C65.4456 117.403 65.7296 117.684 66.0332 118.091L65.4946 118.499C65.2399 118.169 65.0343 117.955 64.858 117.849C64.6818 117.742 64.4859 117.694 64.2803 117.694C64.0159 117.694 63.7906 117.771 63.6241 117.936C63.4577 118.101 63.3695 118.295 63.3695 118.528C63.3695 118.673 63.3989 118.809 63.4577 118.945C63.5164 119.08 63.6242 119.226 63.7906 119.381C63.8788 119.459 64.1628 119.682 64.6426 120.031C65.2204 120.448 65.6121 120.826 65.8275 121.156C66.0429 121.486 66.1507 121.815 66.1507 122.145C66.1507 122.62 65.9646 123.037 65.6023 123.386C65.2399 123.736 64.7895 123.91 64.2705 123.91C63.869 123.91 63.5066 123.804 63.1737 123.59C62.8212 123.386 62.5274 123.028 62.2532 122.533Z" fill="#B4975A"></path><path d="M68.7166 117.829V117.188H72.3496V117.829H70.8709V123.754H70.1952V117.829H68.7166Z" fill="#B4975A"></path><path d="M77.8629 117.181L80.9574 123.746H80.2425L79.1947 121.584H76.3352L75.2972 123.746H74.5627L77.6964 117.181H77.8629ZM77.7748 118.577L76.6388 120.953H78.9107L77.7748 118.577Z" fill="#B4975A"></path><path d="M83.1704 117.829V117.188H86.8035V117.829H85.3248V123.754H84.6491V117.829H83.1704Z" fill="#B4975A"></path><path d="M89.6143 117.181H93.4138V117.821H90.2802V119.877H93.3942V120.517H90.2802V123.097H93.3942V123.737H89.624V117.181H89.6143Z" fill="#B4975A"></path><path d="M103.412 109.829H12.7314V110.421H103.412V109.829Z" fill="#B4975A"></path></svg> 